HIERARCHY
ROOT SpineBase
{
  OFFSET 0.000000 0.000000 0.000000
  CHANNELS 6 Xposition Yposition Zposition Zrotation Xrotation Yrotation
  JOINT SpineMid
  {
    OFFSET 0.000000 32.347404 0.000000
    CHANNELS 3 Zrotation Xrotation Yrotation
    JOINT SpineShoulder
    {
      OFFSET 0.122513 23.992774 -0.813887
      CHANNELS 3 Zrotation Xrotation Yrotation
      JOINT Neck
      {
        OFFSET 0.105062 7.927797 -0.615178
        CHANNELS 3 Zrotation Xrotation Yrotation
        JOINT Head
        {
          OFFSET -5.560608 14.158287 -1.037612
          CHANNELS 3 Zrotation Xrotation Yrotation
          End Site
          {
            OFFSET 0 0 0
          }
        }
      }
      JOINT ShoulderLeft
      {
        OFFSET -17.589949 -6.468978 5.846450
        CHANNELS 3 Zrotation Xrotation Yrotation
        JOINT ElbowLeft
        {
          OFFSET -1.521972 -26.390387 3.590805
          CHANNELS 3 Zrotation Xrotation Yrotation
          JOINT WristLeft
          {
            OFFSET 1.232717 -24.867058 -4.148578
            CHANNELS 3 Zrotation Xrotation Yrotation
            JOINT HandLeft
            {
              OFFSET -0.249946 -5.465398 -1.576999
              CHANNELS 3 Zrotation Xrotation Yrotation
              JOINT HandTipLeft
              {
                OFFSET 1.419529 -6.481791 -2.563649
                CHANNELS 3 Zrotation Xrotation Yrotation
                End Site
                {
                  OFFSET 0 0 0
                }
              }
              JOINT ThumbLeft
              {
                OFFSET -1.358348 -2.475989 -1.847998
                CHANNELS 3 Zrotation Xrotation Yrotation
                End Site
                {
                  OFFSET 0 0 0
                }
              }
            }
          }
        }
      }
      JOINT ShoulderRight
      {
        OFFSET 15.601168 -3.168558 -7.772841
        CHANNELS 3 Zrotation Xrotation Yrotation
        JOINT ElbowRight
        {
          OFFSET 7.426665 -26.542137 -0.049973
          CHANNELS 3 Zrotation Xrotation Yrotation
          JOINT WristRight
          {
            OFFSET -0.614853 -22.612450 -4.904044
            CHANNELS 3 Zrotation Xrotation Yrotation
            JOINT HandRight
            {
              OFFSET -2.263074 -7.761696 -0.785973
              CHANNELS 3 Zrotation Xrotation Yrotation
              JOINT HandTipRight
              {
                OFFSET -0.265170 -7.122897 -1.070801
                CHANNELS 3 Zrotation Xrotation Yrotation
                End Site
                {
                  OFFSET 0 0 0
                }
              }
              JOINT ThumbRight
              {
                OFFSET 3.628441 -1.461921 0.618020
                CHANNELS 3 Zrotation Xrotation Yrotation
                End Site
                {
                  OFFSET 0 0 0
                }
              }
            }
          }
        }
      }
    }
  }
  JOINT HipLeft
  {
    OFFSET -6.359248 0.004473 -1.283830
    CHANNELS 3 Zrotation Xrotation Yrotation
    JOINT KneeLeft
    {
      OFFSET 1.639954 -33.503866 4.236919
      CHANNELS 3 Zrotation Xrotation Yrotation
      JOINT AnkleLeft
      {
        OFFSET 6.340590 -37.666582 8.553542
        CHANNELS 3 Zrotation Xrotation Yrotation
        JOINT FootLeft
        {
          OFFSET 0.674607 -8.160880 -5.894374
          CHANNELS 3 Zrotation Xrotation Yrotation
          End Site
          {
            OFFSET 0 0 0
          }
        }
      }
    }
  }
  JOINT HipRight
  {
    OFFSET 7.827701 1.876317 -5.964541
    CHANNELS 3 Zrotation Xrotation Yrotation
    JOINT KneeRight
    {
      OFFSET 8.817172 -34.126268 1.544941
      CHANNELS 3 Zrotation Xrotation Yrotation
      JOINT AnkleRight
      {
        OFFSET 3.522239 -37.467821 7.519576
        CHANNELS 3 Zrotation Xrotation Yrotation
        JOINT FootRight
        {
          OFFSET -1.230107 -8.161740 -5.735875
          CHANNELS 3 Zrotation Xrotation Yrotation
          End Site
          {
            OFFSET 0 0 0
          }
        }
      }
    }
  }
}
MOTION
Frames: 13
Frame Time: 0.033333
-67.935054 79.849578 327.721728 -0.000000 0.000000 18.259312 0.000000 0.000000 -18.259312 -0.000000 0.000000 0.000000 -0.000000 0.000000 0.000000 0.000000 0.000000 0.000000 -0.000000 0.000000 0.000000 -0.000000 0.000000 0.000000 -0.000000 0.000000 0.000000 -0.000000 0.000000 0.000000 0.000000 0.000000 0.000000 0.000000 0.000000 0.000000 -0.000000 0.000000 0.000000 -0.000000 0.000000 0.000000 -0.000000 0.000000 0.000000 -0.000000 0.000000 0.000000 0.000000 0.000000 0.000000 0.000000 0.000000 0.000000 0.000000 0.000000 -18.259312 -0.000000 0.000000 0.000000 -0.000000 0.000000 0.000000 0.000000 0.000000 0.000000 0.000000 0.000000 -18.259312 -0.000000 0.000000 0.000000 -0.000000 0.000000 0.000000 0.000000 0.000000 0.000000
-67.984659 79.854076 327.575003 -0.049546 0.046786 18.473414 0.032168 -0.060074 -18.473377 -0.000000 0.000000 0.000000 -0.000000 0.000000 0.000000 0.000000 0.000000 0.000000 -0.000000 0.000000 0.000000 -0.000000 0.000000 0.000000 -0.000000 0.000000 0.000000 -2.467558 -4.277968 -0.054451 0.000000 0.000000 0.000000 0.000000 0.000000 0.000000 -0.000000 0.000000 0.000000 -0.000000 0.000000 0.000000 -0.000000 0.000000 0.000000 0.770559 0.323068 -0.130019 0.000000 0.000000 0.000000 0.000000 0.000000 0.000000 0.032168 -0.060074 -18.473377 -0.000000 0.000000 0.000000 0.408743 1.186312 -0.199835 0.000000 0.000000 0.000000 0.032168 -0.060074 -18.473377 -0.000000 0.000000 0.000000 -0.776096 -0.299968 0.589086 0.000000 0.000000 0.000000
-68.028609 79.858089 327.444624 -0.094863 0.084639 18.655063 0.062805 -0.110536 -18.654933 -0.000000 0.000000 0.000000 -0.000000 0.000000 0.000000 0.000000 0.000000 0.000000 -0.000000 0.000000 0.000000 -0.000000 0.000000 0.000000 -0.000000 0.000000 0.000000 -4.791165 -8.284580 -0.279173 0.000000 0.000000 0.000000 0.000000 0.000000 0.000000 -0.000000 0.000000 0.000000 -0.000000 0.000000 0.000000 -0.000000 0.000000 0.000000 1.358367 0.548559 -0.231076 0.000000 0.000000 0.000000 0.000000 0.000000 0.000000 0.062805 -0.110536 -18.654933 -0.000000 0.000000 0.000000 0.577632 2.292873 -0.235703 0.000000 0.000000 0.000000 0.062805 -0.110536 -18.654933 -0.000000 0.000000 0.000000 -1.430238 -0.626418 1.093894 0.000000 0.000000 0.000000
-68.066903 79.861619 327.330593 -0.135940 0.113546 18.803921 0.092086 -0.151303 -18.803665 -0.000000 0.000000 0.000000 -0.000000 0.000000 0.000000 0.000000 0.000000 0.000000 -0.000000 0.000000 0.000000 -0.000000 0.000000 0.000000 0.769835 0.353561 -0.240537 -7.534957 -12.097444 -0.415169 0.000000 0.000000 0.000000 0.000000 0.000000 0.000000 -0.000000 0.000000 0.000000 -0.000000 0.000000 0.000000 -0.634988 -0.623935 0.242508 2.416504 1.296394 -0.571474 0.000000 0.000000 0.000000 0.000000 0.000000 0.000000 0.092086 -0.151303 -18.803665 -0.000000 0.000000 0.000000 0.510710 3.329556 -0.106140 0.000000 0.000000 0.000000 0.092086 -0.151303 -18.803665 -0.000000 0.000000 0.000000 -1.960806 -0.976196 1.513638 0.000000 0.000000 0.000000
-68.099543 79.864664 327.232908 -0.172770 0.133495 18.919714 0.120152 -0.182302 -18.919322 -0.000000 0.000000 0.000000 -0.000000 0.000000 0.000000 0.000000 0.000000 0.000000 -0.000000 0.000000 0.000000 -0.032346 0.899262 0.050164 1.014691 -0.644398 -0.331636 -9.276230 -14.628464 -0.697352 0.000000 0.000000 0.000000 0.000000 0.000000 0.000000 -0.000000 0.000000 0.000000 -0.000000 0.000000 0.000000 -0.677153 -0.857934 0.313350 2.717410 1.573757 -0.699091 0.000000 0.000000 0.000000 0.000000 0.000000 0.000000 0.120152 -0.182302 -18.919322 -0.000000 0.000000 0.000000 0.209480 4.303128 0.191482 0.000000 0.000000 0.000000 0.025046 -1.008721 -19.122062 -0.180870 0.811974 0.203034 -2.366664 -1.346688 1.847981 0.000000 0.000000 0.000000
-68.126528 79.867225 327.151571 -0.205345 0.144474 19.002233 0.147114 -0.203462 -19.001713 -0.000000 0.000000 0.000000 -0.000000 0.000000 0.000000 0.000000 0.000000 0.000000 -0.000000 0.000000 0.000000 -0.011142 1.066165 0.054731 1.184847 -1.020766 -0.374280 -10.416636 -16.088486 -0.884414 0.000000 0.000000 0.000000 0.000000 0.000000 0.000000 -0.000000 0.000000 0.000000 0.618763 0.565967 -0.152499 -1.255196 -1.678711 0.522017 2.783328 1.786009 -0.794287 0.000000 0.000000 0.000000 0.000000 0.000000 0.000000 0.147114 -0.203462 -19.001713 -0.000000 0.000000 0.000000 -0.326976 5.217184 0.661028 0.000000 0.000000 0.000000 0.052813 -1.138025 -19.229127 -0.218770 0.913478 0.228054 -2.647046 -1.735836 2.096933 0.000000 0.000000 0.000000
-68.147465 79.871866 327.085892 -0.236693 0.135072 19.053950 0.179631 -0.204941 -19.053350 -0.000000 0.000000 0.000000 -0.000000 0.000000 0.000000 0.000000 0.000000 0.000000 -0.000000 0.000000 0.000000 0.049056 1.245744 0.052942 1.029206 -1.808240 -0.311566 -13.108621 -19.006264 -1.309289 0.000000 0.000000 0.000000 0.000000 0.000000 0.000000 -0.000000 0.000000 0.000000 0.606927 0.536017 -0.148912 -1.369903 -1.745597 0.557011 2.820789 1.733622 -0.816582 0.000000 0.000000 0.000000 0.000000 0.000000 0.000000 0.355320 -1.010255 -19.031714 -0.428717 0.703992 -0.017139 -1.842995 5.548531 1.818216 0.000000 0.000000 0.000000 0.081745 -1.211633 -19.297756 -0.240322 0.982477 0.245256 -3.027463 -2.408889 2.453680 0.000000 0.000000 0.000000
-68.159889 79.871104 327.033192 -0.258824 0.123853 19.042431 0.204253 -0.201520 -19.041792 -0.000000 0.000000 0.000000 -0.000000 0.000000 0.000000 0.000000 0.000000 0.000000 -0.000000 0.000000 0.000000 0.111944 1.363035 0.047468 1.185286 -2.742935 -0.316420 -10.840413 -16.235002 -1.075711 0.000000 0.000000 0.000000 0.000000 0.000000 0.000000 -0.000000 0.000000 0.000000 -0.000000 0.000000 0.000000 -0.510446 -1.643732 0.523739 2.106560 1.509864 -0.815707 0.000000 0.000000 0.000000 0.000000 0.000000 0.000000 0.442562 -1.014562 -19.011075 -0.490188 0.691049 -0.025232 -2.019393 6.798903 2.055909 0.000000 0.000000 0.000000 0.124083 -1.235424 -19.289988 -0.265904 1.002339 0.249516 -3.170547 -2.939313 2.626435 0.000000 0.000000 0.000000
-68.164826 79.869516 327.015266 -0.273467 0.105433 19.010201 0.224210 -0.188759 -19.009580 -0.000000 0.000000 0.000000 -0.000000 0.000000 0.000000 0.000000 0.000000 0.000000 -0.000000 0.000000 0.000000 0.170179 1.429345 0.040259 1.122760 -3.821013 -0.250847 -10.536259 -14.516843 -0.783287 0.000000 0.000000 0.000000 0.000000 0.000000 0.000000 -0.000000 0.000000 0.000000 -0.000000 0.000000 0.000000 0.095540 -3.105318 0.901227 1.270495 2.778857 -1.152306 0.000000 0.000000 0.000000 0.000000 0.000000 0.000000 0.516337 -0.975538 -18.971066 -0.532061 0.649055 -0.032532 -3.135150 7.674126 2.972666 0.000000 0.000000 0.000000 0.188129 -1.177628 -19.241337 -0.291839 0.945516 0.233735 -3.004015 -3.636811 2.612064 0.000000 0.000000 0.000000
-68.175134 79.873069 326.995502 -0.291201 0.093856 19.000737 0.244778 -0.183550 -19.000107 -0.000000 0.000000 0.000000 -0.000000 0.000000 0.000000 0.000000 0.000000 0.000000 -0.000000 0.000000 0.000000 0.213765 1.458510 0.033847 1.336413 -4.076801 -0.294201 -9.176721 -10.687348 -0.053581 0.000000 0.000000 0.000000 0.000000 0.000000 0.000000 -0.000000 0.000000 0.000000 0.767291 -0.284573 -0.156877 0.112280 -3.595064 1.235822 0.074452 2.993983 -1.175624 0.000000 0.000000 0.000000 0.000000 0.000000 0.000000 0.585855 -0.990677 -18.954563 -0.584783 0.652547 -0.038719 -4.571003 7.399751 4.034669 0.000000 0.000000 0.000000 0.287747 -1.133957 -19.212092 -0.353352 0.883330 0.215203 -2.552526 -4.025495 2.361456 0.000000 0.000000 0.000000
-68.184396 79.874117 326.989513 -0.305674 0.086362 18.975890 0.260981 -0.181063 -18.975247 -0.000000 0.000000 0.000000 -0.000000 0.000000 0.000000 0.000000 0.000000 0.000000 -0.000000 0.000000 0.000000 0.227513 1.467565 0.031813 1.486373 -4.426636 -0.311264 -8.148326 -6.848446 0.632371 0.000000 0.000000 0.000000 0.000000 0.000000 0.000000 -0.000000 0.000000 0.000000 1.336165 -1.162394 -0.245246 -0.935801 -1.585214 1.036761 1.082770 2.852854 -1.045216 0.000000 0.000000 0.000000 0.000000 0.000000 0.000000 0.643648 -1.047643 -18.923825 -0.643063 0.695604 -0.043416 -6.062837 6.300012 5.056141 0.000000 0.000000 0.000000 0.390027 -1.061896 -19.159505 -0.411016 0.789679 0.188490 -1.696750 -3.894309 1.759982 0.000000 0.000000 0.000000
-68.173108 79.876583 326.990062 -0.286428 0.087412 19.009640 0.242336 -0.175941 -19.009050 -0.000000 0.000000 0.000000 -0.000000 0.000000 0.000000 0.000000 0.000000 0.000000 -0.000000 0.000000 0.000000 0.233029 1.460208 0.030476 1.993808 -3.240331 -0.508956 -8.625171 -5.612550 1.371157 0.000000 0.000000 0.000000 0.000000 0.000000 0.000000 -0.000000 0.000000 0.000000 1.108550 -0.880237 -0.208374 -0.715391 -0.675575 0.639020 1.837711 2.717575 -0.867152 0.000000 0.000000 0.000000 0.000000 0.000000 0.000000 0.628369 -1.131360 -18.957258 -0.675526 0.778150 -0.042800 -7.300332 4.975356 5.851131 0.000000 0.000000 0.000000 0.414413 -0.965702 -19.166577 -0.421853 0.689477 0.161780 -1.409548 -4.182093 1.607943 0.000000 0.000000 0.000000
-68.205782 79.866219 326.967778 -0.325350 0.107622 19.023474 0.272503 -0.207792 -19.022674 -0.000000 0.000000 0.000000 -0.000000 0.000000 0.000000 0.000000 0.000000 0.000000 -0.000000 0.000000 0.000000 0.248128 1.493897 0.029363 2.047170 -2.431837 -0.578550 -11.508566 -9.013245 1.573961 0.000000 0.000000 0.000000 0.000000 0.000000 0.000000 -0.000000 0.000000 0.000000 -0.000000 0.000000 0.000000 0.061416 2.194493 -0.646162 1.786082 -3.129192 0.492048 0.000000 0.000000 0.000000 0.000000 0.000000 0.000000 0.735183 -1.371230 -18.959574 -0.815673 0.949922 -0.049962 -7.754252 3.761155 6.059741 0.000000 0.000000 0.000000 0.272503 -0.207792 -19.022674 0.129449 -0.852128 -0.053080 -1.359956 -3.276177 1.554091 0.000000 0.000000 0.000000
